<?xml version="1.0" encoding="UTF-8" standalone="no"?>
<!-- Generator: Adobe Illustrator 14.0.0, SVG Export Plug-In  -->

<svg
   xmlns:dc="http://purl.org/dc/elements/1.1/"
   xmlns:cc="http://creativecommons.org/ns#"
   xmlns:rdf="http://www.w3.org/1999/02/22-rdf-syntax-ns#"
   xmlns:svg="http://www.w3.org/2000/svg"
   xmlns="http://www.w3.org/2000/svg"
   xmlns:sodipodi="http://sodipodi.sourceforge.net/DTD/sodipodi-0.dtd"
   xmlns:inkscape="http://www.inkscape.org/namespaces/inkscape"
   version="1.1"
   x="0px"
   y="0px"
   width="64"
   height="64"
   viewBox="-30.429 -4.318 64 64.000001"
   enable-background="new -30.429 -4.318 175 175"
   xml:space="preserve"
   id="svg3355"
   inkscape:version="0.91 r13725"
   sodipodi:docname="p64.svg"><metadata
     id="metadata3369"><rdf:RDF><cc:Work
         rdf:about=""><dc:format>image/svg+xml</dc:format><dc:type
           rdf:resource="http://purl.org/dc/dcmitype/StillImage" /><dc:title></dc:title></cc:Work></rdf:RDF></metadata><sodipodi:namedview
     pagecolor="#ffffff"
     bordercolor="#666666"
     borderopacity="1"
     objecttolerance="10"
     gridtolerance="10"
     guidetolerance="10"
     inkscape:pageopacity="0"
     inkscape:pageshadow="2"
     inkscape:window-width="1920"
     inkscape:window-height="1029"
     id="namedview3367"
     showgrid="true"
     inkscape:zoom="13.793059"
     inkscape:cx="22.502747"
     inkscape:cy="28.05216"
     inkscape:window-x="0"
     inkscape:window-y="1"
     inkscape:window-maximized="1"
     inkscape:current-layer="svg3355"
     fit-margin-top="2"
     fit-margin-left="10.5"
     fit-margin-right="10.5"
     fit-margin-bottom="1.9"><inkscape:grid
       type="xygrid"
       id="grid3371"
       originx="-55.687165"
       originy="-55.364231" /></sodipodi:namedview><defs
     id="defs3357" /><path
     style="fill:#09476b"
     d="m 15.396266,8.5586699 c -1.130332,2.9813411 -2.260662,5.9626801 -3.390993,8.9440241 4.117305,5.398675 2.937636,13.798563 -2.4953905,17.896808 -4.808985,3.950675 -12.485312,3.514068 -16.8593913,-0.878373 -4.8945562,-4.52695 -5.2938392,-12.756896 -0.90704,-17.75744 1.9687523,-2.35575 4.8258103,-3.970106 7.88602028,-4.430921 C 0.73889148,9.4069859 1.8483105,6.4812018 2.9577305,3.5554191 -6.2914665,2.8255992 -15.446813,8.8426359 -18.527602,17.448114 c -3.696709,9.231214 8.58e-4,20.676997 8.5454905,25.961964 7.556022,5.014926 18.304697,4.362115 25.1983025,-1.499853 7.666314,-6.117971 10.105505,-17.52323 5.725223,-26.215303 -1.317091,-2.725887 -3.213524,-5.179234 -5.545148,-7.1362521 z"
     id="path3359"
     inkscape:connector-curvature="0" /><path
     style="fill:#09476b"
     d="m 12.271226,-2.0928353 c -2.6112435,-1.092584 -5.5423465,0.827193 -6.1069145,3.4365603 -1.531581,4.0818227 -3.121095,8.1438689 -4.61596,12.23824 -1.04778702,3.242066 2.507924,6.714163 5.767115,5.441469 2.7676085,-0.882998 3.1094045,-3.97493 4.1226425,-6.25217 1.199191,-3.3136071 2.608539,-6.5640691 3.664051,-9.9209028 0.357253,-2.03701845 -0.854599,-4.216956 -2.830934,-4.9431965 z"
     id="path3361"
     inkscape:connector-curvature="0" /><path
     style="fill:#09476b"
     d="m -11.33917,39.566097 c 0.0011,-4.703846 0.03151,-9.409741 -0.01576,-14.112974 -0.101505,-3.123854 -4.114197,-5.28961 -6.691684,-3.279307 -2.425143,1.617355 -1.831869,4.65916 -1.902867,7.12749 0.01443,8.137036 -0.02702,16.274607 0.0238,24.410889 0.10168,3.123749 4.114302,5.289192 6.691684,3.279018 2.425137,-1.617208 1.831879,-4.658914 1.902868,-7.12715 -0.0054,-3.432573 0.01078,-6.86569 -0.0082,-10.297966 z"
     id="path3363"
     inkscape:connector-curvature="0" /><path
     d="m -0.01433652,30.336255 c -3.30724598,-1.11129 -3.90024098,-6.029846 -0.985143,-7.907581 2.72880302,-2.132535 7.13894302,0.13249 7.07135602,3.529898 0.217666,3.079124 -3.165274,5.599323 -6.08621302,4.377683 z"
     id="path3365"
     inkscape:connector-curvature="0" /></svg>